# xmcd CD database file
#
# Track frame offsets:
#	182
#	13355
#	24582
#	31800
#	46205
#	62047
#	73340
#	87830
#	105827
#	126025
#	158780
#
# Disc length: 2461 seconds
#
# Revision: 0
# Processed by: cddbd v1.4PL0 Copyright (c) Steve Scherf et al.
# Submitted via: CDex 1.50
#
DISCID=88099b0b
DTITLE=Sammy Davis Jr. - Mr. Bojangles
DYEAR=1999
DGENRE=Jazz
TTITLE0=Keeping Out of Mischief Now
TTITLE1=Love is All Around
TTITLE2=That's Entertainment
TTITLE3=The Birth of the Blues
TTITLE4=All the Things You Are
TTITLE5=The People Tree
TTITLE6=The Candy Man
TTITLE7=John Shaft
TTITLE8=Over the Rainbow
TTITLE9=Macarthur Park
TTITLE10=Mr. Bojangles
EXTD=YEAR: 1999
EXTT0=
EXTT1=
EXTT2=
EXTT3=
EXTT4=
EXTT5=
EXTT6=
EXTT7=
EXTT8=
EXTT9=
EXTT10=
PLAYORDER=
